<?xml version="1.0" standalone="no"?>
<!DOCTYPE svg PUBLIC "-//W3C//DTD SVG 20010904//EN"
 "http://www.w3.org/TR/2001/REC-SVG-20010904/DTD/svg10.dtd">
<svg version="1.0" xmlns="http://www.w3.org/2000/svg"
 width="4073.000000pt" height="4073.000000pt" viewBox="0 0 4073.000000 4073.000000"
 preserveAspectRatio="xMidYMid meet">
<metadata>
Created by potrace 1.11, written by Peter Selinger 2001-2013
</metadata>
<g transform="translate(0.000000,4073.000000) scale(0.100000,-0.100000)"
fill="#000000" stroke="none">
<path d="M16944 39934 c-27 -31 -58 -66 -69 -78 -11 -13 -31 -36 -44 -52 -14
-16 -66 -76 -116 -134 -50 -58 -135 -157 -190 -220 -54 -63 -127 -146 -160
-185 -34 -38 -70 -81 -81 -94 -10 -13 -26 -31 -34 -40 -14 -14 -107 -121 -167
-191 -60 -71 -509 -589 -532 -615 -15 -16 -168 -194 -341 -394 -723 -836
-1113 -1287 -1134 -1311 -37 -41 -298 -342 -346 -400 -25 -29 -50 -58 -56 -64
-6 -6 -84 -97 -174 -201 -90 -105 -176 -203 -191 -220 -14 -16 -104 -120 -199
-230 -165 -192 -264 -306 -285 -329 -5 -6 -66 -76 -135 -156 -68 -80 -129
-150 -135 -156 -5 -6 -30 -35 -55 -64 -71 -82 -80 -93 -108 -125 -15 -16 -66
-75 -112 -130 -47 -55 -92 -107 -100 -115 -8 -9 -40 -45 -70 -80 -30 -35 -75
-87 -99 -114 -24 -28 -53 -62 -65 -76 -70 -82 -273 -317 -286 -330 -8 -8 -35
-40 -60 -69 -25 -29 -53 -63 -63 -75 -10 -11 -42 -48 -71 -81 -30 -33 -98
-112 -152 -175 -54 -63 -116 -135 -138 -160 -23 -25 -63 -72 -91 -104 -27 -33
-59 -69 -70 -82 -11 -12 -31 -35 -44 -50 -40 -47 -205 -238 -216 -250 -5 -6
-32 -37 -60 -69 -27 -32 -54 -63 -60 -69 -5 -6 -35 -40 -65 -76 -30 -36 -63
-74 -73 -85 -16 -17 -37 -41 -117 -135 -8 -9 -38 -44 -66 -76 -29 -32 -145
-167 -259 -299 -114 -132 -231 -267 -260 -300 -29 -33 -87 -100 -130 -150 -42
-49 -89 -103 -104 -120 -15 -16 -81 -93 -146 -170 -66 -77 -129 -149 -140
-161 -24 -26 -54 -60 -120 -139 -27 -33 -55 -64 -61 -70 -6 -5 -37 -41 -70
-80 -32 -38 -61 -72 -64 -75 -3 -3 -61 -70 -129 -150 -69 -80 -129 -150 -135
-155 -6 -6 -36 -39 -66 -75 -30 -36 -57 -67 -60 -70 -3 -3 -43 -50 -90 -105
-47 -55 -92 -107 -100 -115 -8 -9 -37 -43 -65 -75 -54 -64 -99 -116 -186 -216
-31 -35 -107 -122 -169 -194 -62 -71 -124 -143 -139 -160 -14 -16 -82 -95
-151 -175 -69 -80 -137 -158 -151 -175 -46 -53 -173 -199 -195 -225 -27 -31
-618 -714 -687 -794 -29 -33 -68 -78 -87 -100 -19 -23 -39 -46 -45 -52 -5 -6
-30 -35 -55 -64 -25 -29 -50 -58 -55 -64 -6 -6 -80 -92 -165 -191 -85 -99
-157 -182 -161 -185 -5 -5 -165 -190 -254 -294 -27 -33 -55 -64 -60 -70 -13
-13 -99 -113 -275 -316 -8 -10 -35 -41 -60 -70 -25 -29 -50 -58 -55 -64 -13
-14 -144 -165 -170 -197 -12 -13 -56 -64 -99 -114 -43 -49 -102 -117 -130
-149 -79 -92 -265 -306 -305 -352 -20 -23 -58 -67 -86 -100 -47 -54 -360 -416
-448 -518 -10 -12 -37 -43 -60 -70 -23 -27 -53 -61 -67 -76 -14 -15 -45 -52
-70 -81 -25 -29 -52 -60 -60 -69 -8 -9 -35 -40 -60 -70 -25 -30 -47 -57 -51
-60 -5 -4 -370 -425 -424 -489 -11 -13 -25 -29 -30 -35 -17 -18 -257 -295
-300 -346 -22 -26 -67 -78 -100 -116 -86 -98 -204 -234 -234 -269 -14 -17 -53
-62 -86 -100 -33 -39 -62 -72 -65 -75 -3 -3 -62 -70 -130 -150 -69 -80 -129
-150 -135 -156 -5 -6 -30 -35 -54 -64 -25 -29 -50 -58 -56 -64 -5 -6 -41 -47
-79 -91 -71 -82 -163 -189 -181 -209 -6 -6 -64 -74 -130 -151 -66 -76 -127
-146 -135 -155 -8 -9 -38 -43 -66 -75 -131 -153 -579 -671 -589 -681 -5 -6
-30 -35 -55 -64 -25 -29 -96 -112 -159 -184 -148 -170 -156 -180 -221 -256
-30 -36 -69 -81 -87 -100 -17 -19 -41 -46 -53 -60 -12 -14 -30 -35 -41 -47
-10 -13 -62 -74 -115 -135 -54 -62 -100 -115 -103 -118 -21 -18 -121 -140
-121 -148 0 -6 91 -116 202 -244 112 -128 207 -239 213 -246 5 -7 17 -21 26
-30 17 -18 279 -320 314 -361 11 -14 27 -32 35 -41 13 -14 70 -80 160 -184 14
-16 30 -34 35 -40 6 -6 35 -40 65 -76 30 -36 57 -67 60 -70 3 -3 34 -39 70
-80 36 -41 77 -88 91 -105 15 -16 64 -73 109 -125 45 -52 106 -122 135 -155
29 -33 83 -96 121 -140 37 -44 86 -100 108 -125 23 -25 52 -59 66 -75 14 -17
68 -79 120 -140 52 -60 106 -122 120 -138 14 -16 36 -42 50 -57 14 -15 36 -40
49 -56 30 -36 144 -167 151 -174 3 -3 30 -34 60 -70 30 -36 57 -67 60 -70 3
-3 21 -23 40 -45 19 -23 60 -70 91 -105 31 -36 107 -123 169 -195 62 -71 126
-146 144 -165 17 -19 56 -64 86 -100 30 -36 57 -67 60 -70 3 -3 34 -39 70 -80
36 -41 77 -88 91 -105 15 -16 77 -88 139 -160 62 -71 124 -144 139 -160 14
-17 53 -61 86 -100 33 -38 72 -83 86 -100 15 -16 122 -140 239 -275 189 -217
294 -338 325 -374 6 -6 39 -45 75 -86 36 -41 70 -80 75 -86 6 -6 76 -87 156
-180 80 -93 240 -277 355 -410 115 -132 232 -267 259 -299 28 -32 55 -63 60
-69 6 -6 84 -96 175 -201 90 -104 167 -192 170 -195 3 -3 30 -34 60 -70 30
-36 59 -70 65 -76 5 -6 35 -39 65 -74 30 -35 60 -68 65 -74 6 -6 48 -56 95
-111 47 -54 99 -115 116 -135 18 -19 69 -78 114 -130 45 -52 108 -124 139
-159 31 -36 72 -83 91 -105 19 -23 37 -43 40 -46 3 -3 45 -52 95 -110 78 -91
120 -140 160 -184 6 -6 35 -40 65 -76 30 -36 57 -67 60 -70 5 -5 150 -172 260
-300 30 -35 62 -71 70 -80 8 -8 53 -60 100 -115 47 -55 94 -109 105 -121 11
-12 31 -34 44 -50 38 -45 405 -468 411 -474 3 -3 34 -39 69 -80 35 -41 87
-102 116 -135 29 -33 103 -118 165 -190 62 -71 139 -159 170 -195 32 -36 70
-81 86 -100 16 -19 33 -40 39 -46 5 -6 35 -39 65 -74 30 -35 91 -105 135 -155
83 -95 111 -127 291 -335 59 -69 155 -179 212 -245 58 -66 128 -147 156 -179
28 -33 69 -80 91 -106 22 -25 65 -74 95 -109 30 -35 60 -69 65 -75 6 -6 37
-42 70 -81 106 -123 119 -138 161 -185 22 -25 128 -146 235 -270 252 -292 242
-281 254 -294 6 -6 53 -60 105 -121 51 -60 101 -117 109 -126 9 -9 25 -27 36
-40 11 -13 121 -141 245 -284 195 -226 245 -283 295 -339 11 -13 118 -136 155
-180 14 -16 32 -37 40 -46 8 -9 71 -81 140 -160 69 -80 137 -158 151 -175 110
-126 238 -274 255 -294 10 -13 28 -33 39 -45 11 -11 87 -100 170 -196 82 -96
155 -179 161 -185 5 -5 35 -39 65 -75 30 -35 61 -71 69 -80 8 -9 38 -42 65
-74 28 -33 115 -134 195 -225 80 -92 168 -194 195 -226 28 -33 55 -64 61 -70
10 -10 184 -210 220 -253 23 -29 20 -25 179 -208 71 -82 132 -151 135 -154 3
-3 61 -70 130 -150 68 -80 127 -147 130 -150 3 -3 59 -68 125 -145 66 -77 125
-144 131 -150 9 -8 90 -102 224 -259 14 -16 32 -37 40 -46 8 -8 53 -60 100
-115 47 -55 90 -104 96 -110 6 -5 35 -39 65 -75 30 -36 56 -67 59 -70 5 -4
459 -527 620 -714 14 -16 32 -36 41 -45 8 -9 69 -79 135 -156 65 -77 123 -145
129 -151 26 -28 125 -143 151 -174 16 -19 33 -40 39 -46 10 -11 65 -74 196
-224 40 -47 78 -90 84 -96 5 -7 33 -38 60 -70 47 -55 235 -271 294 -339 14
-16 67 -77 116 -135 50 -58 99 -114 110 -126 11 -11 31 -34 45 -50 14 -16 79
-92 145 -169 66 -77 122 -142 125 -145 3 -3 35 -39 70 -80 36 -41 77 -88 92
-105 15 -16 36 -41 48 -55 109 -129 112 -131 132 -113 18 16 18 136 16 4325
-2 2799 1 4307 7 4306 6 -1 57 -56 114 -123 57 -66 106 -122 110 -125 3 -3 28
-32 56 -65 27 -33 52 -62 55 -65 3 -3 35 -39 70 -80 36 -41 67 -77 70 -80 3
-3 46 -52 95 -110 49 -58 92 -107 95 -110 3 -3 34 -39 70 -80 36 -41 67 -77
70 -80 3 -3 75 -86 160 -185 85 -99 157 -182 160 -185 5 -4 182 -209 280 -324
14 -16 34 -39 45 -50 11 -12 45 -51 75 -86 30 -36 57 -67 60 -70 3 -3 75 -86
160 -185 85 -99 159 -185 165 -191 20 -22 130 -147 395 -454 150 -173 284
-328 299 -345 14 -16 100 -115 191 -220 91 -104 167 -192 170 -195 3 -3 32
-36 64 -75 33 -38 64 -74 70 -80 6 -5 33 -37 61 -70 27 -33 52 -62 55 -65 5
-4 227 -260 290 -334 14 -16 32 -37 40 -46 8 -8 69 -78 135 -155 66 -77 125
-145 130 -151 10 -10 246 -282 753 -868 134 -155 254 -292 266 -306 45 -52
353 -406 376 -434 14 -16 30 -34 35 -40 6 -6 51 -58 100 -116 50 -58 92 -107
96 -110 3 -3 52 -59 109 -125 56 -66 129 -149 160 -185 64 -72 507 -584 585
-675 28 -32 55 -63 60 -69 6 -6 39 -45 75 -86 35 -41 71 -82 80 -91 8 -8 33
-37 55 -64 22 -26 47 -55 55 -64 9 -9 56 -63 105 -121 81 -94 131 -152 160
-184 6 -6 37 -42 70 -81 69 -80 65 -75 261 -301 82 -94 169 -195 194 -224 25
-28 59 -68 76 -88 l32 -37 18 23 c18 22 19 71 18 1350 -5 4711 -6 7333 -2
7338 3 2 27 -21 54 -53 27 -32 61 -71 76 -88 38 -43 54 -61 217 -250 80 -93
180 -208 221 -255 42 -47 116 -132 165 -190 50 -57 97 -112 105 -121 27 -30
64 -73 160 -184 52 -60 100 -115 105 -121 6 -6 31 -35 56 -64 24 -29 49 -58
54 -64 6 -6 114 -130 240 -276 126 -146 236 -272 244 -281 9 -9 27 -29 41 -45
54 -62 269 -311 339 -393 41 -47 160 -185 265 -306 105 -121 202 -233 216
-249 14 -16 32 -37 40 -46 8 -8 40 -45 70 -80 30 -36 57 -67 61 -70 3 -3 79
-90 169 -195 90 -104 195 -226 234 -270 38 -44 92 -107 120 -139 28 -33 69
-80 92 -105 22 -25 144 -165 270 -311 126 -146 241 -278 255 -295 27 -31 490
-563 521 -600 22 -26 23 -27 238 -275 102 -118 205 -237 230 -265 25 -28 63
-72 85 -98 22 -27 53 -62 69 -80 32 -36 62 -71 375 -432 124 -143 227 -262
230 -265 3 -3 76 -86 161 -185 85 -99 157 -182 160 -185 3 -3 62 -70 130 -150
69 -80 127 -147 130 -150 7 -7 122 -139 151 -174 13 -16 29 -34 34 -40 6 -6
55 -63 110 -126 55 -63 105 -120 111 -126 5 -6 30 -35 55 -64 24 -29 49 -58
54 -64 6 -6 39 -45 75 -86 36 -41 70 -80 75 -86 6 -6 30 -35 55 -64 48 -56 72
-84 191 -220 41 -47 117 -134 169 -195 52 -60 99 -115 105 -121 11 -13 97
-111 145 -167 31 -36 34 -37 52 -21 18 17 18 128 16 4890 -2 3297 0 4870 7
4867 5 -2 40 -41 78 -86 37 -45 80 -95 95 -112 15 -16 70 -79 122 -140 52 -60
97 -112 100 -115 3 -3 32 -36 65 -75 32 -38 71 -83 86 -100 15 -16 58 -66 95
-110 38 -44 71 -82 74 -85 4 -4 159 -182 226 -260 91 -106 415 -479 429 -494
6 -6 66 -76 135 -156 69 -80 127 -147 130 -150 3 -3 46 -52 95 -110 50 -58
104 -121 121 -140 18 -19 82 -93 144 -165 62 -71 138 -159 169 -195 84 -96
115 -132 143 -165 15 -16 165 -190 335 -385 169 -196 351 -405 403 -465 52
-61 106 -123 121 -140 15 -16 75 -86 134 -155 60 -69 113 -130 119 -136 6 -6
34 -37 61 -70 138 -161 477 -553 541 -624 22 -25 94 -108 160 -185 65 -77 124
-144 130 -150 9 -9 84 -95 161 -185 20 -24 382 -441 502 -580 95 -109 134
-154 186 -214 28 -32 55 -64 61 -70 5 -6 68 -78 140 -161 71 -82 141 -163 156
-180 15 -16 35 -40 45 -51 71 -84 154 -180 422 -488 167 -193 312 -360 322
-371 10 -11 66 -76 125 -145 60 -69 111 -127 114 -130 3 -3 32 -36 65 -75 33
-38 70 -81 82 -95 12 -14 31 -36 43 -50 75 -88 262 -303 360 -415 63 -72 135
-156 160 -185 25 -29 52 -60 60 -69 9 -9 56 -63 105 -121 50 -58 92 -107 95
-110 3 -3 80 -90 170 -195 151 -175 351 -404 375 -431 5 -7 104 -120 219 -253
198 -228 210 -240 226 -224 18 20 18 -642 6 22238 -3 4989 -6 10844 -7 13012
-1 3831 -2 3943 -20 3959 -18 16 -21 15 -56 -27 -21 -23 -45 -50 -53 -59 -8
-9 -55 -63 -105 -120 -128 -149 -119 -139 -271 -315 -134 -155 -287 -331 -403
-465 -71 -81 -123 -141 -187 -216 -116 -135 -253 -294 -371 -429 -38 -44 -80
-93 -94 -109 -13 -16 -35 -41 -49 -56 -14 -15 -36 -40 -49 -56 -36 -42 -146
-170 -206 -239 -48 -54 -636 -735 -688 -795 -42 -49 -143 -166 -238 -275 -53
-60 -203 -234 -334 -385 -255 -295 -334 -387 -350 -404 -5 -6 -35 -40 -65 -76
-48 -57 -93 -109 -125 -144 -5 -6 -50 -58 -100 -116 -49 -58 -92 -107 -95
-110 -3 -3 -30 -34 -60 -70 -47 -56 -69 -81 -135 -154 -5 -6 -64 -74 -130
-151 -65 -77 -139 -163 -165 -190 -25 -28 -67 -77 -95 -110 -84 -99 -128 -150
-134 -155 -5 -4 -116 -133 -470 -544 -57 -67 -120 -139 -140 -161 -20 -22 -61
-69 -91 -105 -30 -36 -57 -67 -60 -70 -3 -3 -30 -34 -60 -70 -30 -36 -60 -69
-66 -75 -6 -5 -65 -73 -130 -150 -65 -76 -126 -147 -134 -155 -8 -9 -37 -43
-65 -75 -27 -32 -55 -63 -60 -69 -10 -10 -152 -175 -257 -297 -25 -30 -56 -65
-68 -79 -52 -60 -68 -79 -120 -140 -30 -36 -60 -69 -66 -75 -6 -5 -54 -59
-105 -120 -52 -60 -106 -123 -120 -140 -70 -80 -118 -136 -164 -190 -50 -58
-69 -80 -161 -185 -27 -31 -71 -82 -99 -114 -27 -32 -58 -68 -68 -80 -10 -11
-37 -43 -60 -70 -23 -27 -47 -54 -52 -60 -10 -10 -117 -132 -171 -196 -70 -82
-184 -213 -229 -265 -57 -65 -305 -352 -448 -519 -60 -69 -191 -220 -197 -226
-3 -3 -32 -36 -65 -75 -33 -38 -71 -82 -85 -97 -14 -15 -45 -52 -70 -82 -25
-30 -49 -57 -55 -59 -7 -3 -11 1627 -12 4876 -2 4761 -3 4881 -21 4900 -18 18
-20 17 -68 -39 -27 -32 -67 -78 -89 -104 -22 -25 -65 -74 -95 -110 -30 -35
-75 -87 -100 -115 -25 -28 -65 -75 -90 -105 -25 -29 -50 -59 -57 -65 -6 -7
-30 -34 -53 -61 -60 -70 -138 -160 -190 -219 -25 -28 -64 -73 -87 -100 -23
-28 -51 -61 -63 -75 -13 -14 -88 -101 -169 -195 -80 -93 -153 -177 -161 -185
-8 -9 -26 -30 -40 -46 -160 -186 -207 -241 -215 -250 -16 -17 -115 -130 -231
-265 -163 -189 -260 -301 -284 -329 -38 -44 -124 -143 -135 -154 -6 -6 -33
-38 -60 -71 -28 -33 -53 -62 -56 -65 -3 -3 -48 -55 -100 -115 -52 -61 -109
-126 -126 -145 -17 -19 -66 -75 -108 -125 -105 -122 -99 -115 -285 -330 -90
-104 -211 -244 -268 -310 -58 -66 -125 -144 -151 -174 -25 -29 -51 -59 -56
-65 -32 -36 -157 -181 -200 -231 -59 -71 -124 -144 -145 -165 -8 -8 -27 -31
-42 -50 -14 -19 -39 -49 -55 -66 -15 -17 -48 -54 -73 -83 -25 -30 -52 -61 -61
-70 -8 -9 -44 -50 -79 -91 -35 -41 -69 -80 -74 -86 -6 -6 -29 -33 -51 -59 -22
-27 -45 -53 -50 -59 -16 -17 -168 -191 -560 -646 -131 -151 -254 -294 -274
-316 -20 -23 -58 -68 -86 -100 -27 -32 -57 -65 -65 -74 -8 -8 -53 -60 -100
-115 -46 -55 -91 -107 -100 -116 -16 -17 -69 -79 -189 -219 -73 -85 -167 -193
-186 -214 -6 -6 -66 -76 -134 -156 -69 -80 -137 -158 -152 -175 -15 -16 -56
-64 -91 -105 -34 -41 -65 -77 -69 -80 -3 -3 -79 -90 -169 -195 -163 -189 -348
-403 -399 -460 -14 -16 -67 -77 -116 -135 -50 -58 -92 -107 -95 -110 -3 -3
-32 -36 -65 -75 -33 -38 -62 -72 -65 -75 -3 -3 -32 -36 -65 -75 -70 -81 -78
-91 -221 -255 -60 -69 -129 -149 -153 -178 -25 -28 -47 -50 -49 -47 -3 3 -6
1956 -7 4340 -2 4179 -3 4336 -21 4356 l-18 20 -20 -23 c-12 -13 -48 -55 -81
-93 -33 -39 -72 -83 -87 -100 -14 -16 -75 -86 -133 -155 -59 -69 -122 -141
-139 -160 -17 -19 -91 -105 -164 -190 -74 -85 -146 -168 -160 -185 -15 -16
-54 -62 -87 -100 -33 -39 -72 -84 -86 -100 -46 -52 -248 -285 -399 -460 -80
-93 -150 -173 -155 -179 -6 -6 -35 -40 -65 -76 -30 -36 -57 -67 -60 -70 -3 -3
-34 -39 -70 -80 -35 -41 -67 -77 -70 -80 -3 -3 -45 -52 -95 -110 -49 -58 -104
-121 -121 -140 -17 -19 -91 -104 -163 -187 -72 -84 -190 -222 -262 -305 -72
-84 -145 -169 -163 -188 -17 -19 -103 -118 -191 -220 -88 -102 -172 -198 -186
-215 -15 -16 -61 -70 -104 -120 -42 -49 -100 -116 -129 -148 -28 -33 -53 -62
-56 -67 -3 -4 -30 -36 -61 -71 -32 -35 -121 -138 -199 -229 -79 -91 -166 -192
-195 -225 -29 -33 -117 -134 -195 -225 -78 -91 -166 -192 -195 -225 -28 -33
-103 -118 -164 -190 -62 -71 -122 -141 -134 -155 -13 -14 -49 -56 -82 -95 -33
-38 -62 -72 -65 -75 -3 -3 -34 -39 -70 -80 -36 -41 -67 -77 -70 -80 -3 -3 -43
-50 -90 -105 -47 -55 -87 -102 -90 -105 -3 -3 -35 -39 -70 -80 -35 -41 -66
-77 -69 -80 -3 -3 -31 -34 -61 -70 -30 -36 -57 -67 -60 -70 -3 -3 -136 -156
-295 -340 -376 -435 -464 -538 -550 -636 -71 -81 -110 -126 -250 -289 -43 -49
-89 -104 -104 -120 -58 -67 -99 -114 -152 -176 -31 -35 -120 -138 -199 -229
-179 -207 -242 -280 -255 -294 -9 -10 -99 -115 -151 -176 -12 -14 -102 -117
-200 -230 -99 -113 -193 -223 -210 -244 l-30 -39 -2 4324 c-3 4135 -3 4325
-20 4342 -18 17 -20 16 -68 -39z"/>
</g>
</svg>
