<?xml version="1.0" standalone="no"?>
<!DOCTYPE svg PUBLIC "-//W3C//DTD SVG 20010904//EN"
 "http://www.w3.org/TR/2001/REC-SVG-20010904/DTD/svg10.dtd">
<svg version="1.0" xmlns="http://www.w3.org/2000/svg"
 width="166.000000pt" height="166.000000pt" viewBox="0 0 166.000000 166.000000"
 preserveAspectRatio="xMidYMid meet">
<metadata>
Created by potrace 1.11, written by Peter Selinger 2001-2013
</metadata>
<g transform="translate(0.000000,166.000000) scale(0.100000,-0.100000)"
fill="#000000" stroke="none">
<path d="M817 1643 c-2 -5 -10 -29 -17 -55 -7 -27 -16 -48 -19 -48 -4 0 -26
16 -48 35 -40 34 -42 35 -45 13 -2 -18 -9 -22 -30 -20 l-26 2 13 -43 c17 -58
7 -73 -60 -87 -62 -13 -65 -20 -40 -89 14 -41 14 -42 -16 -76 -20 -22 -40 -35
-55 -35 -14 0 -100 32 -193 70 -92 39 -179 70 -193 70 -36 0 -78 -45 -78 -84
0 -35 13 -57 68 -113 41 -43 179 -195 227 -251 17 -19 37 -55 47 -81 96 -271
96 -269 102 -416 3 -77 8 -160 11 -185 6 -48 12 -151 14 -212 l1 -38 350 0
350 0 1 43 c1 23 3 53 4 67 10 121 18 278 20 390 1 93 7 147 17 175 9 22 28
81 43 130 l27 90 184 186 c192 194 197 202 175 262 -6 14 -23 29 -41 36 -29
10 -46 5 -169 -45 -75 -31 -148 -62 -163 -69 -24 -11 -29 -11 -43 6 -10 10
-26 19 -36 21 -18 3 -18 5 6 50 27 51 26 52 -34 83 -28 14 -35 14 -42 3 -13
-19 -11 -28 6 -34 14 -6 22 -34 9 -34 -4 0 -17 12 -30 28 -27 31 -31 69 -9 98
23 30 18 34 -35 34 -43 0 -50 3 -48 18 2 11 -3 16 -14 14 -13 -2 -17 7 -20 44
l-3 46 -26 -21 c-18 -14 -29 -17 -36 -10 -7 7 -13 2 -17 -15 -9 -35 -19 -33
-51 14 -29 42 -32 44 -38 33z m-183 -268 c3 -8 1 -15 -4 -15 -6 0 -10 7 -10
15 0 8 2 15 4 15 2 0 6 -7 10 -15z m466 -150 c0 -8 -2 -15 -4 -15 -2 0 -6 7
-10 15 -3 8 -1 15 4 15 6 0 10 -7 10 -15z m-463 -77 c1 -102 2 -106 26 -134
17 -19 35 -28 63 -30 21 -1 42 -3 47 -3 4 -1 7 -10 7 -20 0 -18 -8 -19 -135
-18 -131 2 -136 3 -157 27 -13 14 -43 47 -66 74 -24 26 -42 49 -40 52 4 4 70
-24 110 -46 10 -6 24 -10 32 -10 19 0 76 82 76 109 0 22 20 61 31 61 3 0 6
-28 6 -62z m540 -59 c24 -2 25 -2 48 7 11 4 -15 -29 -58 -73 l-79 -80 -77 0
c-68 -1 -77 1 -78 18 -2 19 15 24 59 20 27 -3 76 27 84 51 11 33 11 33 13 86
l1 47 35 -37 c18 -21 42 -39 52 -39z"/>
</g>
</svg>
